<svg width="489.6" height="316.2" viewBox="0 0 240 155" class="looka-1j8o68f" xmlns="http://www.w3.org/2000/svg"><defs id="SvgjsDefs3472"></defs><g id="SvgjsG3473" featurekey="rootContainer" transform="matrix(1,0,0,1,0,0)" fill="#ffffff"><rect xmlns="http://www.w3.org/2000/svg" width="240" height="155" rx="10" ry="10"></rect></g><g id="SvgjsG3474" featurekey="nameFeature-0" transform="matrix(2.0065412522252144,0,0,2.0065412522252144,30.113137187108457,-5.765339063479875)" fill="#fca5a5"><path d="M23.467 30.6416 c1.492 -0.6636 3.4604 2.362 1.7184 3.137 c-5.558 2.4721 -10.719 5.7924 -15.136 9.9432 c-3.0921 8.7624 -6.6224 17.364 -10.593 25.772 c-0.84632 1.7918 -3.181 -0.89812 -3.5154 -1.7869 c-2.849 -7.568 1.2509 -15.604 5.8516 -21.571 c1.4806 -1.9203 3.1112 -3.7072 4.8576 -5.37 c0.5078 -1.4451 1.0018 -2.8946 1.4851 -4.348 c-3.3605 2.2698 -6.2432 5.4072 -10.086 6.9112 c-1.4455 0.56612 -3.3535 -1.7396 -3.059 -3.059 c0.90876 -4.072 3.1268 -8.2856 6.534 -10.824 c2.7992 -2.085 6.4484 -1.4757 8.318 1.3109 c0.15906 -0.047736 0.31894 -0.0934 0.48128 -0.13539 c1.3896 -0.3573 3.5044 1.6217 3.059 3.059 c-0.22188 0.7158 -0.4568 1.4275 -0.68436 2.1413 c3.9245 -2.2209 7.3044 -3.6407 10.768 -5.1812 z M1.5461 35.9432 c1.8627 -1.4895 3.69 -3.0316 5.7748 -4.1368 c-0.0934 -0.02082 -0.20922 -0.049376 -0.35891 -0.089764 c-0.26226 0.044452 -0.52492 0.088516 -0.78756 0.13297 c-0.76272 0.17988 -1.4198 0.7048 -2.0084 1.1988 c-0.92344 0.77536 -1.7388 1.7102 -2.462 2.6711 c-0.055076 0.0734 -0.10402 0.14969 -0.15785 0.22391 z M-0.39168 58.751999999999995 c0.47028 -1.0866 0.92916 -2.1785 1.3852 -3.2708 c-0.5376 1.0645 -1.0083 2.1589 -1.3852 3.2708 z M37.66 31.534 c1.3533 -1.1461 3.5701 0.94052 2.2939 2.0222 c-2.2184 1.8791 -4.532 3.6594 -6.9428 5.2852 c-1.9415 1.3097 -4.1492 2.913 -6.4904 3.385 c-2.6687 0.53796 -5.2108 -1.946 -5.2768 -4.5908 c-0.075468 -3.0309 2.2074 -6.4912 3.6818 -9.0312 c0.98908 -1.7028 4.3224 1.2253 3.5318 2.5868 c-1.1674 2.01 -2.1891 3.9926 -3.006 6.172 c-0.11422 0.29285 -0.21984 0.589 -0.32262 0.88592 c2.7731 -0.49516 9.3396 -4.012 12.531 -6.7152 z M31.8192 24.378999999999998 c-0.53512 1.7542 -4.0124 -1.0103 -3.5313 -2.5867 c0.89488 -2.9342 2.074 -5.7344 3.5476 -8.4244 c0.94096 -1.7184 4.2936 1.1951 3.5314 2.5867 c-1.4741 2.6903 -2.6528 5.4904 -3.5477 8.4244 z M66.997 31.1512 c1.4704 -0.69296 3.0733 1.6898 1.3374 2.508 c-3.5452 1.6702 -6.8752 3.732 -10.201 5.7952 c-2.063 1.2795 -4.3592 3.1039 -6.7676 3.6656 c-2.3648 0.55184 -4.5864 -1.7155 -4.224 -4.0576 c0.21004 -1.3562 0.74312 -2.716 1.4255 -4.0456 c-3.8944 2.1532 -7.3556 5.0116 -10.265 8.4988 c-1.1449 1.3725 -3.6635 -1.6584 -3.3519 -2.8796 c0.89244 -3.4983 2.5578 -6.848 4.3232 -9.9848 c0.96296 -1.7118 4.3068 1.2085 3.5314 2.5867 c-0.046912 0.083204 -0.092576 0.16844 -0.13949 0.25246 c3.0676 -2.1059 6.4452 -3.7569 10.037 -4.8808 c1.51 -0.47232 3.7422 1.948 2.8796 3.3519 c-1.1959 1.9464 -2.218 3.9123 -3.2059 5.9076 c4.7528 -2.384 9.9376 -4.5116 14.62 -6.718 z  M92.23299999999999 30.6416 c1.492 -0.6636 3.4604 2.362 1.7184 3.137 c-5.558 2.4721 -10.719 5.7924 -15.136 9.9432 c-3.0921 8.7624 -6.6224 17.364 -10.593 25.772 c-0.84632 1.7918 -3.181 -0.89812 -3.5154 -1.7869 c-2.849 -7.568 1.2509 -15.604 5.8516 -21.571 c1.4806 -1.9203 3.1112 -3.7072 4.8576 -5.37 c0.5078 -1.4451 1.0018 -2.8946 1.4851 -4.348 c-3.3605 2.2698 -6.2432 5.4072 -10.086 6.9112 c-1.4455 0.56612 -3.3535 -1.7396 -3.059 -3.059 c0.90876 -4.072 3.1268 -8.2856 6.534 -10.824 c2.7992 -2.085 6.4484 -1.4757 8.318 1.3109 c0.15906 -0.047736 0.31894 -0.0934 0.48128 -0.13539 c1.3896 -0.3573 3.5044 1.6217 3.059 3.059 c-0.22188 0.7158 -0.4568 1.4275 -0.68436 2.1413 c3.9245 -2.2209 7.3044 -3.6407 10.768 -5.1812 z M70.31209999999999 35.9432 c1.8627 -1.4895 3.69 -3.0316 5.7748 -4.1368 c-0.0934 -0.02082 -0.20922 -0.049376 -0.35891 -0.089764 c-0.26226 0.044452 -0.52492 0.088516 -0.78756 0.13297 c-0.76272 0.17988 -1.4198 0.7048 -2.0084 1.1988 c-0.92344 0.77536 -1.7388 1.7102 -2.462 2.6711 c-0.055076 0.0734 -0.10402 0.14969 -0.15785 0.22391 z M68.37432 58.751999999999995 c0.47028 -1.0866 0.92916 -2.1785 1.3852 -3.2708 c-0.5376 1.0645 -1.0083 2.1589 -1.3852 3.2708 z"></path></g></svg>